<svg xmlns="http://www.w3.org/2000/svg" xmlns:xlink="http://www.w3.org/1999/xlink" width="1080" zoomAndPan="magnify" viewBox="0 0 810 299.999988" height="400" preserveAspectRatio="xMidYMid meet" version="1.0"><defs><clipPath id="c2e1b30b12"><path d="M 447.574219 135.328125 L 695.96875 135.328125 L 695.96875 221.367188 L 447.574219 221.367188 Z M 447.574219 135.328125 " clip-rule="nonzero"/></clipPath><clipPath id="d1e00d3a58"><path d="M 521.355469 193.167969 C 518.507812 198.761719 515.65625 204.359375 512.804688 209.953125 C 508.207031 220.675781 497.230469 220.675781 497.230469 220.675781 L 447.632812 221.128906 L 472.207031 178.550781 L 513.0625 178.550781 C 525.316406 179.824219 530.421875 168.589844 530.421875 168.589844 L 541.660156 149.699219 C 548.550781 135.148438 562.589844 135.65625 562.589844 135.65625 L 695.355469 135.65625 C 690.332031 151.316406 685.3125 166.976562 680.289062 182.636719 C 602.027344 182.03125 544.980469 182.03125 536.867188 182.449219 C 534.824219 182.554688 531.105469 182.929688 527.582031 185.324219 C 523.515625 188.074219 521.882812 191.808594 521.355469 193.175781 " clip-rule="nonzero"/></clipPath><clipPath id="44b2f64699"><path d="M 0.601562 0.328125 L 248.519531 0.328125 L 248.519531 86.28125 L 0.601562 86.28125 Z M 0.601562 0.328125 " clip-rule="nonzero"/></clipPath><clipPath id="2aa0134419"><path d="M 74.355469 58.167969 C 71.507812 63.761719 68.65625 69.359375 65.804688 74.953125 C 61.207031 85.675781 50.230469 85.675781 50.230469 85.675781 L 0.632812 86.128906 L 25.207031 43.550781 L 66.0625 43.550781 C 78.316406 44.824219 83.421875 33.589844 83.421875 33.589844 L 94.660156 14.699219 C 101.550781 0.148438 115.589844 0.65625 115.589844 0.65625 L 248.355469 0.65625 C 243.332031 16.316406 238.3125 31.976562 233.289062 47.636719 C 155.027344 47.03125 97.980469 47.03125 89.867188 47.449219 C 87.824219 47.554688 84.105469 47.929688 80.582031 50.324219 C 76.515625 53.074219 74.882812 56.808594 74.355469 58.175781 " clip-rule="nonzero"/></clipPath><clipPath id="282b70b309"><rect x="0" width="249" y="0" height="87"/></clipPath><clipPath id="41ca783952"><path d="M 576.261719 158 L 688.488281 158 L 688.488281 182.464844 L 576.261719 182.464844 Z M 576.261719 158 " clip-rule="nonzero"/></clipPath><clipPath id="5b88687833"><path d="M 680.542969 182.398438 C 683.183594 174.3125 685.816406 166.226562 688.457031 158.144531 L 597.308594 158.144531 C 597.308594 158.144531 587.867188 158.144531 583.269531 167.59375 C 580.972656 172.527344 578.671875 177.460938 576.375 182.398438 Z M 680.542969 182.398438 " clip-rule="nonzero"/></clipPath><clipPath id="7a762172b2"><path d="M 0.261719 0 L 112.488281 0 L 112.488281 24.398438 L 0.261719 24.398438 Z M 0.261719 0 " clip-rule="nonzero"/></clipPath><clipPath id="e317b115ab"><path d="M 104.542969 24.398438 C 107.183594 16.3125 109.816406 8.226562 112.457031 0.144531 L 21.308594 0.144531 C 21.308594 0.144531 11.867188 0.144531 7.269531 9.59375 C 4.972656 14.527344 2.671875 19.460938 0.375 24.398438 Z M 104.542969 24.398438 " clip-rule="nonzero"/></clipPath><clipPath id="9c07c44645"><rect x="0" width="113" y="0" height="25"/></clipPath><clipPath id="b38058061c"><path d="M 407.921875 136.078125 L 496.957031 136.078125 L 496.957031 178.722656 L 407.921875 178.722656 Z M 407.921875 136.078125 " clip-rule="nonzero"/></clipPath><clipPath id="6a1db96f52"><path d="M 472.207031 178.550781 L 496.847656 136.484375 L 447.179688 136.484375 C 447.179688 136.484375 435.375 135.523438 426.5625 146.824219 L 407.984375 178.167969 Z M 472.207031 178.550781 " clip-rule="nonzero"/></clipPath><clipPath id="e2ec4ea873"><path d="M 0.921875 0.078125 L 89.957031 0.078125 L 89.957031 42.558594 L 0.921875 42.558594 Z M 0.921875 0.078125 " clip-rule="nonzero"/></clipPath><clipPath id="9fedc87a4b"><path d="M 65.207031 42.550781 L 89.847656 0.484375 L 40.179688 0.484375 C 40.179688 0.484375 28.375 -0.476562 19.5625 10.824219 L 0.984375 42.167969 Z M 65.207031 42.550781 " clip-rule="nonzero"/></clipPath><clipPath id="a67c37b8c4"><rect x="0" width="90" y="0" height="43"/></clipPath><clipPath id="cc21eb945f"><path d="M 330 178 L 408 178 L 408 222.863281 L 330 222.863281 Z M 330 178 " clip-rule="nonzero"/></clipPath><clipPath id="115a99f5b6"><path d="M 382.71875 222.273438 L 330.054688 222.273438 L 355.523438 178.167969 L 407.992188 178.167969 Z M 382.71875 222.273438 " clip-rule="nonzero"/></clipPath><clipPath id="ba1b8493fc"><path d="M 0 0.078125 L 78 0.078125 L 78 44.480469 L 0 44.480469 Z M 0 0.078125 " clip-rule="nonzero"/></clipPath><clipPath id="96f8eaac81"><path d="M 52.71875 44.273438 L 0.0546875 44.273438 L 25.523438 0.167969 L 77.992188 0.167969 Z M 52.71875 44.273438 " clip-rule="nonzero"/></clipPath><clipPath id="34f244d737"><rect x="0" width="78" y="0" height="45"/></clipPath><clipPath id="12fac551c9"><path d="M 296 136.078125 L 381 136.078125 L 381 178.722656 L 296 178.722656 Z M 296 136.078125 " clip-rule="nonzero"/></clipPath><clipPath id="d97c2bcb15"><path d="M 380.992188 136.46875 L 355.523438 178.167969 L 296.355469 178.167969 L 313.777344 150.082031 C 313.777344 150.082031 319.328125 137.976562 334.839844 136.46875 " clip-rule="nonzero"/></clipPath><clipPath id="7ade7f8f00"><path d="M 0.160156 0.320312 L 85 0.320312 L 85 42.320312 L 0.160156 42.320312 Z M 0.160156 0.320312 " clip-rule="nonzero"/></clipPath><clipPath id="a36d03fc6f"><path d="M 84.992188 0.46875 L 59.523438 42.167969 L 0.355469 42.167969 L 17.777344 14.082031 C 17.777344 14.082031 23.328125 1.976562 38.839844 0.46875 " clip-rule="nonzero"/></clipPath><clipPath id="3a9358a679"><rect x="0" width="85" y="0" height="43"/></clipPath><clipPath id="6cc269b6c7"><path d="M 356.296875 221 L 448 221 L 448 266.257812 L 356.296875 266.257812 Z M 356.296875 221 " clip-rule="nonzero"/></clipPath><clipPath id="4d6d7d094d"><path d="M 382.71875 222.273438 L 447.632812 221.128906 L 428.769531 254.449219 C 428.769531 254.449219 421.972656 266.898438 405.789062 266.226562 L 356.484375 266.226562 Z M 382.71875 222.273438 " clip-rule="nonzero"/></clipPath><clipPath id="004ead53f1"><path d="M 0.398438 0.0390625 L 91.839844 0.0390625 L 91.839844 45.257812 L 0.398438 45.257812 Z M 0.398438 0.0390625 " clip-rule="nonzero"/></clipPath><clipPath id="2399fa6f55"><path d="M 26.71875 1.273438 L 91.632812 0.128906 L 72.769531 33.449219 C 72.769531 33.449219 65.972656 45.898438 49.789062 45.226562 L 0.484375 45.226562 Z M 26.71875 1.273438 " clip-rule="nonzero"/></clipPath><clipPath id="5880f2b166"><rect x="0" width="92" y="0" height="46"/></clipPath><clipPath id="51dd4ff9b1"><path d="M 147.558594 203 L 201 203 L 201 266.257812 L 147.558594 266.257812 Z M 147.558594 203 " clip-rule="nonzero"/></clipPath><clipPath id="f7454e351b"><path d="M 200.8125 266.246094 L 147.578125 266.246094 L 165.195312 203.058594 C 165.195312 203.058594 161.746094 251.699219 200.8125 266.253906 " clip-rule="nonzero"/></clipPath><clipPath id="b34d48e609"><path d="M 0.558594 0.0390625 L 53.878906 0.0390625 L 53.878906 63.257812 L 0.558594 63.257812 Z M 0.558594 0.0390625 " clip-rule="nonzero"/></clipPath><clipPath id="c1a19e4aaf"><path d="M 53.8125 63.246094 L 0.578125 63.246094 L 18.195312 0.0585938 C 18.195312 0.0585938 14.746094 48.699219 53.8125 63.253906 " clip-rule="nonzero"/></clipPath><clipPath id="63c24de956"><rect x="0" width="54" y="0" height="64"/></clipPath><clipPath id="07d8633496"><path d="M 114.636719 25.347656 L 253.796875 25.347656 L 253.796875 93 L 114.636719 93 Z M 114.636719 25.347656 " clip-rule="nonzero"/></clipPath><clipPath id="3e2939b514"><path d="M 253.667969 25.355469 L 114.644531 25.355469 C 119.882812 47.863281 125.117188 70.378906 130.351562 92.886719 L 191.882812 92.886719 C 194.617188 83.984375 200.347656 69.476562 212.558594 55.101562 C 227.527344 37.492188 244.574219 29.074219 253.667969 25.355469 " clip-rule="nonzero"/></clipPath><clipPath id="c4e7c89961"><path d="M 0.636719 0.347656 L 139.679688 0.347656 L 139.679688 68 L 0.636719 68 Z M 0.636719 0.347656 " clip-rule="nonzero"/></clipPath><clipPath id="83d828c9e7"><path d="M 139.667969 0.355469 L 0.644531 0.355469 C 5.882812 22.863281 11.117188 45.378906 16.351562 67.886719 L 77.882812 67.886719 C 80.617188 58.984375 86.347656 44.476562 98.558594 30.101562 C 113.527344 12.492188 130.574219 4.074219 139.667969 0.355469 " clip-rule="nonzero"/></clipPath><clipPath id="0c4d101a56"><rect x="0" width="140" y="0" height="68"/></clipPath><clipPath id="376260be04"><path d="M 174 25.347656 L 361.535156 25.347656 L 361.535156 266.257812 L 174 266.257812 Z M 174 25.347656 " clip-rule="nonzero"/></clipPath><clipPath id="cd176e2cdf"><path d="M 361.027344 25.355469 L 297.070312 25.355469 C 297.070312 25.355469 229.667969 24.207031 201.707031 100.03125 C 173.746094 175.859375 175.097656 193.484375 175.097656 193.484375 C 175.097656 193.484375 163.800781 254.757812 226.222656 266.246094 L 294.773438 266.246094 L 312.097656 201.628906 C 293.046875 201.597656 273.992188 201.558594 254.941406 201.53125 C 252.257812 201.46875 245.875 200.96875 242.875 196.550781 C 240.105469 192.460938 241.636719 187.09375 242.3125 184.675781 C 242.3125 184.675781 243.757812 175.085938 252.257812 141.785156 C 256.546875 124.976562 259.449219 109.421875 263.746094 103.492188 C 264.878906 101.929688 266.4375 100.070312 268.726562 98.324219 C 273.0625 95.015625 277.652344 93.914062 280.539062 93.484375 C 300.730469 93.753906 320.917969 94.023438 341.109375 94.296875 Z M 361.027344 25.355469 " clip-rule="nonzero"/></clipPath><clipPath id="b0458047ae"><path d="M 0 0.347656 L 187.199219 0.347656 L 187.199219 241.257812 L 0 241.257812 Z M 0 0.347656 " clip-rule="nonzero"/></clipPath><clipPath id="4b7ddfd7ab"><path d="M 187.027344 0.355469 L 123.070312 0.355469 C 123.070312 0.355469 55.667969 -0.792969 27.707031 75.03125 C -0.253906 150.859375 1.097656 168.484375 1.097656 168.484375 C 1.097656 168.484375 -10.199219 229.757812 52.222656 241.246094 L 120.773438 241.246094 L 138.097656 176.628906 C 119.046875 176.597656 99.992188 176.558594 80.941406 176.53125 C 78.257812 176.46875 71.875 175.96875 68.875 171.550781 C 66.105469 167.460938 67.636719 162.09375 68.3125 159.675781 C 68.3125 159.675781 69.757812 150.085938 78.257812 116.785156 C 82.546875 99.976562 85.449219 84.421875 89.746094 78.492188 C 90.878906 76.929688 92.4375 75.070312 94.726562 73.324219 C 99.0625 70.015625 103.652344 68.914062 106.539062 68.484375 C 126.730469 68.753906 146.917969 69.023438 167.109375 69.296875 Z M 187.027344 0.355469 " clip-rule="nonzero"/></clipPath><clipPath id="21228121dc"><rect x="0" width="188" y="0" height="242"/></clipPath></defs><g clip-path="url(#c2e1b30b12)"><g clip-path="url(#d1e00d3a58)"><g transform="matrix(1, 0, 0, 1, 447, 135)"><g clip-path="url(#282b70b309)"><g clip-path="url(#44b2f64699)"><g clip-path="url(#2aa0134419)"><rect x="-625.2" width="1166.4" fill="#24436f" height="431.999983" y="-200.999997" fill-opacity="1"/></g></g></g></g></g></g><g clip-path="url(#41ca783952)"><g clip-path="url(#5b88687833)"><g transform="matrix(1, 0, 0, 1, 576, 158)"><g clip-path="url(#9c07c44645)"><g clip-path="url(#7a762172b2)"><g clip-path="url(#e317b115ab)"><rect x="-754.2" width="1166.4" fill="#ef7215" height="431.999983" y="-223.999997" fill-opacity="1"/></g></g></g></g></g></g><g clip-path="url(#b38058061c)"><g clip-path="url(#6a1db96f52)"><g transform="matrix(1, 0, 0, 1, 407, 136)"><g clip-path="url(#a67c37b8c4)"><g clip-path="url(#e2ec4ea873)"><g clip-path="url(#9fedc87a4b)"><rect x="-585.2" width="1166.4" fill="#ef7215" height="431.999983" y="-201.999997" fill-opacity="1"/></g></g></g></g></g></g><g clip-path="url(#cc21eb945f)"><g clip-path="url(#115a99f5b6)"><g transform="matrix(1, 0, 0, 1, 330, 178)"><g clip-path="url(#34f244d737)"><g clip-path="url(#ba1b8493fc)"><g clip-path="url(#96f8eaac81)"><rect x="-508.2" width="1166.4" fill="#ef7215" height="431.999983" y="-243.999997" fill-opacity="1"/></g></g></g></g></g></g><g clip-path="url(#12fac551c9)"><g clip-path="url(#d97c2bcb15)"><g transform="matrix(1, 0, 0, 1, 296, 136)"><g clip-path="url(#3a9358a679)"><g clip-path="url(#7ade7f8f00)"><g clip-path="url(#a36d03fc6f)"><rect x="-474.2" width="1166.4" fill="#ef7215" height="431.999983" y="-201.999997" fill-opacity="1"/></g></g></g></g></g></g><g clip-path="url(#6cc269b6c7)"><g clip-path="url(#4d6d7d094d)"><g transform="matrix(1, 0, 0, 1, 356, 221)"><g clip-path="url(#5880f2b166)"><g clip-path="url(#004ead53f1)"><g clip-path="url(#2399fa6f55)"><rect x="-534.2" width="1166.4" fill="#24436f" height="431.999983" y="-286.999997" fill-opacity="1"/></g></g></g></g></g></g><g clip-path="url(#51dd4ff9b1)"><g clip-path="url(#f7454e351b)"><g transform="matrix(1, 0, 0, 1, 147, 203)"><g clip-path="url(#63c24de956)"><g clip-path="url(#b34d48e609)"><g clip-path="url(#c1a19e4aaf)"><rect x="-325.2" width="1166.4" fill="#ee7315" height="431.999983" y="-268.999997" fill-opacity="1"/></g></g></g></g></g></g><g clip-path="url(#07d8633496)"><g clip-path="url(#3e2939b514)"><g transform="matrix(1, 0, 0, 1, 114, 25)"><g clip-path="url(#0c4d101a56)"><g clip-path="url(#c4e7c89961)"><g clip-path="url(#83d828c9e7)"><rect x="-292.2" width="1166.4" fill="#ee7315" height="431.999983" y="-90.999997" fill-opacity="1"/></g></g></g></g></g></g><g clip-path="url(#376260be04)"><g clip-path="url(#cd176e2cdf)"><g transform="matrix(1, 0, 0, 1, 174, 25)"><g clip-path="url(#21228121dc)"><g clip-path="url(#b0458047ae)"><g clip-path="url(#4b7ddfd7ab)"><rect x="-352.2" width="1166.4" fill="#24436f" height="431.999983" y="-90.999997" fill-opacity="1"/></g></g></g></g></g></g></svg>